<?xml version="1.0" encoding="utf-8"?><svg version="1.1" id="Layer_1" xmlns="http://www.w3.org/2000/svg" xmlns:xlink="http://www.w3.org/1999/xlink" x="0px" y="0px" viewBox="0 0 122.87 122.88" style="enable-background:new 0 0 122.87 122.88" xml:space="preserve"><g><path d="M10.67,90.87l25.58,17.07l6.11-6.11L16.78,84.76L10.67,90.87L10.67,90.87z M80.2,2.2l40.48,40.48 c1.46,1.46,2.2,3.39,2.2,5.32c0,1.93-0.73,3.85-2.2,5.32l-10.21,10.21c-1.46,1.46-3.39,2.2-5.32,2.2c-1.93,0-3.85-0.73-5.32-2.2 l-5.98-5.98l-63.15,63.15c-1.46,1.46-3.39,2.19-5.32,2.19c-1.93,0-3.86-0.73-5.32-2.19L2.18,102.82C0.73,101.37,0,99.44,0,97.5 c0-1.93,0.72-3.86,2.18-5.32l63.15-63.15l-5.98-5.98c-1.46-1.46-2.2-3.39-2.2-5.32c0-1.93,0.73-3.85,2.2-5.32L69.56,2.2 C71.03,0.73,72.95,0,74.88,0C76.81,0,78.73,0.73,80.2,2.2L80.2,2.2z M90.26,53.95L68.93,32.62L49.7,51.84l25.58,17.07L90.26,53.95 L90.26,53.95z M117.09,46.26L76.61,5.79c-0.47-0.47-1.1-0.71-1.73-0.71c-0.63,0-1.26,0.24-1.73,0.71L62.94,16 c-0.47,0.47-0.71,1.1-0.71,1.73c0,0.63,0.24,1.26,0.71,1.73l40.48,40.48c0.47,0.47,1.1,0.71,1.73,0.71c0.63,0,1.26-0.24,1.73-0.71 l10.21-10.21c0.47-0.47,0.71-1.1,0.71-1.73S117.56,46.74,117.09,46.26L117.09,46.26z M32.61,111.6L7.02,94.52l-1.25,1.25 c-0.48,0.48-0.72,1.11-0.72,1.73c0,0.62,0.24,1.25,0.72,1.73l17.87,17.87c0.47,0.47,1.1,0.7,1.73,0.7c0.63,0,1.26-0.23,1.73-0.7 L32.61,111.6L32.61,111.6z M46.05,55.49l-6.11,6.11l25.58,17.07l6.11-6.11L46.05,55.49L46.05,55.49z M36.3,65.25l-6.11,6.11 l25.58,17.07l6.11-6.11L36.3,65.25L36.3,65.25z M26.54,75.01l-6.11,6.11l25.58,17.07l6.11-6.11L26.54,75.01L26.54,75.01z"/></g></svg>