<?xml version="1.0" encoding="utf-8"?><svg version="1.1" id="Layer_1" xmlns="http://www.w3.org/2000/svg" xmlns:xlink="http://www.w3.org/1999/xlink" x="0px" y="0px" viewBox="0 0 122.88 122.73" style="enable-background:new 0 0 122.88 122.73" xml:space="preserve"><g><path d="M39.72,87.04c0.96-0.96,2.51-0.96,3.47,0c0.96,0.96,0.96,2.51,0,3.47l-20.13,20.14c-0.96,0.96-2.51,0.96-3.47,0 c-0.96-0.96-0.96-2.51,0-3.47L39.72,87.04L39.72,87.04z M46.48,55.65l8.75,8.75l48.21-48.22l1.49-8.2c0.09-0.5,0.33-0.94,0.66-1.28 l0,0l5.85-5.96c0.95-0.96,2.5-0.98,3.46-0.03l0.01,0.01l0,0l7.24,7.24c0.96,0.96,0.96,2.51,0,3.47l-5.29,5.29 c-0.35,0.35-0.77,0.57-1.22,0.66l-8.82,2.36L58.71,67.87l8.34,8.34c0.96,0.96,0.96,2.51,0,3.47l-3.97,3.98 c-0.42,0.42-0.95,0.65-1.5,0.71c-0.97,0.12-2.13,0.24-3.1,0.33c-1.7,0.17-2.52,0.23-2.53,0.24c-0.01,0.01-0.05,0.82-0.17,2.46 c-0.06,0.86-0.14,1.89-0.29,3.36c-0.06,0.59-0.32,1.1-0.71,1.49l0.01,0.01l-24.21,24.21c-5.59,6.21-12.73,7.35-18.72,5.38 c-2.47-0.82-4.75-2.18-6.63-3.94c-1.89-1.77-3.38-3.96-4.28-6.43c-2.07-5.69-0.98-12.73,5.7-19.29l0,0L29.5,69.32 c0.42-0.43,0.97-0.66,1.52-0.71c1.62-0.23,2.99-0.38,4.12-0.51c1.88-0.21,2.86-0.31,2.92-0.38c0.07-0.07,0.11-1.14,0.19-3.37 c0.04-0.97,0.08-2.09,0.14-3.2c0.03-0.63,0.3-1.19,0.71-1.6l0,0l3.9-3.9C43.97,54.69,45.53,54.69,46.48,55.65L46.48,55.65z M61.84,77.95L44.75,60.86l-1.5,1.5c-0.04,0.86-0.07,1.55-0.09,2.16c-0.13,3.51-0.2,5.21-1.59,6.63c-1.3,1.32-2.87,1.49-5.9,1.82 c-0.9,0.1-1.97,0.22-3.27,0.39L10.11,95.66l0,0l-0.01,0.01c-5.09,4.99-6.01,10.11-4.54,14.14c0.63,1.72,1.68,3.26,3.03,4.53 c1.35,1.27,3.01,2.26,4.81,2.85c4.29,1.41,9.45,0.55,13.55-4.01c0.05-0.06,0.1-0.12,0.16-0.18l23.59-23.6 c0.07-0.83,0.13-1.64,0.19-2.34c0.21-2.83,0.32-4.25,1.53-5.51c1.23-1.28,2.68-1.43,5.58-1.72c0.57-0.06,1.23-0.12,2.2-0.24 L61.84,77.95L61.84,77.95z M113.2,5.93l-3.59,3.66l-0.82,4.55l5.07-1.36l3.09-3.09L113.2,5.93L113.2,5.93z M32.38,79.7 c0.96-0.96,2.51-0.96,3.47,0c0.96,0.96,0.96,2.51,0,3.47l-20.13,20.14c-0.96,0.96-2.51,0.96-3.47,0c-0.96-0.96-0.96-2.51,0-3.47 L32.38,79.7L32.38,79.7z"/></g></svg>